<svg xmlns="http://www.w3.org/2000/svg" xmlns:svg="http://www.w3.org/2000/svg" xmlns:xlink="http://www.w3.org/1999/xlink" version="1.0" height="960pt" width="1035pt" viewBox="235 237 1043 966" ><defs><style type="text/css">
            @font-face {
                font-family: 'noto_regular';
                src: url('https://app.creately.com/diagram/assets/fonts/noto/noto-regular.woff') format('woff'),
                     url('https://app.creately.com/diagram/assets/fonts/noto/noto-regular.woff2') format('woff2');
                font-weight: normal;
                font-style: normal;
            }
        p {
            margin: 0;
        }
        </style></defs><defs><style>
            span{ display: inline-block; }
        </style></defs><g id="1eio4k230k"><g transform="translate(430 400)"><rect x="0" y="0" width="100" height="50" fill="rgba(255,255,255,1)" stroke="#75c19b" stroke-width="1.5" stroke-linecap="round" stroke-linejoin="round"/></g><g transform="translate(449.5, 415.5) rotate(0, 30.5, 9.5)" width="61" height="19"><text text-decoration="none" x="2" fill="rgb(75, 75, 75)" font-size="10pt" font-family="Lato"  y="17">customer</text><text text-decoration="none" x="59" fill="#4b4b4b" font-size="10pt" font-family="noto_regular"  y="17"></text></g></g><g id="1e0qzu4owh"><g transform="translate(385 245)"><ellipse cx="50" cy="25" rx="50" ry="25" fill="rgba(255,255,255,1)" stroke="#f6902a" stroke-width="1.5" stroke-linecap="round" stroke-linejoin="round"/></g><g transform="translate(400.5, 260.5) rotate(0, 34.5, 9.5)" width="69" height="19"><text text-decoration="none" x="2.5" fill="rgb(75, 75, 75)" font-size="10pt" font-family="Lato"  y="17">first_name</text><text text-decoration="none" x="66.5" fill="#4b4b4b" font-size="10pt" font-family="noto_regular"  y="17"></text></g></g><g id="23zn0qu748"><g><path d="M 450,295 L 480,400" fill="none" stroke="#a0a0a0" stroke-width="1.5" stroke-linecap="round" stroke-linejoin="round"/></g></g><g id="1t5faurago"><g transform="translate(520 240)"><ellipse cx="50" cy="25" rx="50" ry="25" fill="rgba(255,255,255,1)" stroke="#f6902a" stroke-width="1.5" stroke-linecap="round" stroke-linejoin="round"/></g><g transform="translate(536, 255.5) rotate(0, 34, 9.5)" width="68" height="19"><text text-decoration="none" x="3.5" fill="rgb(75, 75, 75)" font-size="10pt" font-family="Lato"  y="17">last_name</text><text text-decoration="none" x="64.5" fill="#4b4b4b" font-size="10pt" font-family="noto_regular"  y="17"></text></g></g><g id="6l9xqffxwf"><g><path d="M 540,285 L 505,400" fill="none" stroke="#a0a0a0" stroke-width="1.5" stroke-linecap="round" stroke-linejoin="round"/></g></g><g id="197ax8y5em"><g transform="translate(620 275)"><ellipse cx="50" cy="25" rx="50" ry="25" fill="rgba(255,255,255,1)" stroke="#f6902a" stroke-width="1.5" stroke-linecap="round" stroke-linejoin="round"/></g><g transform="translate(651.5, 290.5) rotate(0, 18.5, 9.5)" width="37" height="19"><text text-decoration="none" x="2.5" fill="rgb(75, 75, 75)" font-size="10pt" font-family="Lato"  y="17">email</text><text text-decoration="none" x="34.5" fill="#4b4b4b" font-size="10pt" font-family="noto_regular"  y="17"></text></g></g><g id="9v2fam62ps"><g><path d="M 620,300 L 505,400" fill="none" stroke="#a0a0a0" stroke-width="1.5" stroke-linecap="round" stroke-linejoin="round"/></g></g><g id="ul92s40c7v"><g transform="translate(660 390)"><ellipse cx="50" cy="25" rx="50" ry="25" fill="rgba(255,255,255,1)" stroke="#f6902a" stroke-width="1.5" stroke-linecap="round" stroke-linejoin="round"/></g><g transform="translate(684.5, 405.5) rotate(0, 25.5, 9.5)" width="51" height="19"><text text-decoration="none" x="2" fill="rgb(75, 75, 75)" font-size="10pt" font-family="Lato"  y="17">address</text><text text-decoration="none" x="49" fill="#4b4b4b" font-size="10pt" font-family="noto_regular"  y="17"></text></g></g><g id="cvj8cqjmew"><g><path d="M 660,415 L 530,425" fill="none" stroke="#a0a0a0" stroke-width="1.5" stroke-linecap="round" stroke-linejoin="round"/></g></g><g id="1c5rlzng9f"><g transform="translate(265 305)"><ellipse cx="50" cy="25" rx="50" ry="25" fill="rgba(255,255,255,1)" stroke="#f6902a" stroke-width="1.5" stroke-linecap="round" stroke-linejoin="round"/></g><g transform="translate(284, 320.5) rotate(0, 31, 9.5)" width="62" height="19"><text text-decoration="none" x="2" fill="rgb(75, 75, 75)" font-size="10pt" font-family="Lato"  y="17">password</text><text text-decoration="none" x="60" fill="#4b4b4b" font-size="10pt" font-family="noto_regular"  y="17"></text></g></g><g id="1kiqe565q2"><g><path d="M 365,330 L 480,400" fill="none" stroke="#a0a0a0" stroke-width="1.5" stroke-linecap="round" stroke-linejoin="round"/></g></g><g id="bonxko8vom"><g transform="translate(650 335)"><ellipse cx="57.499998807907104" cy="25" rx="57.499998807907104" ry="25" fill="rgba(255,255,255,1)" stroke="#f6902a" stroke-width="1.5" stroke-linecap="round" stroke-linejoin="round"/></g><g transform="translate(658.9999988079071, 350.5) rotate(0, 48.5, 9.5)" width="97" height="19"><text text-decoration="none" x="2" fill="rgb(75, 75, 75)" font-size="10pt" font-family="Lato"  y="17">phone_number</text><text text-decoration="none" x="95" fill="#4b4b4b" font-size="10pt" font-family="noto_regular"  y="17"></text></g></g><g id="2r7xq8ffx1"><g><path d="M 650,360 L 505,400" fill="none" stroke="#a0a0a0" stroke-width="1.5" stroke-linecap="round" stroke-linejoin="round"/></g></g><g id="2kyv3wh699"><g transform="translate(260 400)"><ellipse cx="50" cy="25" rx="50" ry="25" fill="rgba(255,255,255,1)" stroke="#f6902a" stroke-width="1.5" stroke-linecap="round" stroke-linejoin="round"/></g><g transform="translate(277.5, 415.5) rotate(0, 32.5, 9.5)" width="65" height="19"><text text-decoration="none" x="2.5" fill="rgb(75, 75, 75)" font-size="10pt" font-family="Lato"  y="17">username</text><text text-decoration="none" x="62.5" fill="#4b4b4b" font-size="10pt" font-family="noto_regular"  y="17"></text></g></g><g id="1d9asjpet1"><g><path d="M 360,425 L 430,425" fill="none" stroke="#a0a0a0" stroke-width="1.5" stroke-linecap="round" stroke-linejoin="round"/></g></g><g id="5csdi80a9k"><g transform="translate(750 555)"><path d="M 130,30 L 65,60 L 0,30 L 65,0 L 130,30 L 130,30 Z" fill="rgba(255,255,255,1)" stroke="#75c19b" stroke-width="1.5" stroke-linecap="round" stroke-linejoin="round"/></g><g transform="translate(786.5, 575.5) rotate(0, 28.5, 9.5)" width="57" height="19"><text text-decoration="none" x="1.5" fill="rgb(75, 75, 75)" font-size="10pt" font-family="Lato"  y="17">Payment</text><text text-decoration="none" x="55.5" fill="#4b4b4b" font-size="10pt" font-family="noto_regular"  y="17"></text></g></g><g id="1uj1e6bd2l"><mask id="163a9" x="467" y="437" width="296" height="161" maskUnits="userSpaceOnUse"><rect x="467" y="437" width="296" height="161" fill="white" /><rect x="539.5" y="572.5" width="16" height="25" fill="black" /></mask><g mask="url(#163a9)"><path d="M 750,585 L 480,585 L 480,450" fill="none" stroke="#a0a0a0" stroke-width="1.5" stroke-linecap="round" stroke-linejoin="round"/></g><g transform="translate(542.5, 575.5)" width="10" height="19"><text text-decoration="none" x="0" fill="rgb(75, 75, 75)" font-weight="bold" font-size="9pt" font-family="Arial"  y="17">N</text><text text-decoration="none" x="10" fill="#4b4b4b" font-size="10pt" font-family="noto_regular"  y="17"></text></g></g><g id="1zjhgtv75d"><g transform="translate(1005 385)"><rect x="0" y="0" width="100" height="50" fill="rgba(255,255,255,1)" stroke="#75c19b" stroke-width="1.5" stroke-linecap="round" stroke-linejoin="round"/></g><g transform="translate(1013, 400.5) rotate(0, 42, 9.5)" width="84" height="19"><text text-decoration="none" x="4" fill="rgb(75, 75, 75)" font-size="10pt" font-family="Lato"  y="17">ticket_status</text><text text-decoration="none" x="80" fill="#4b4b4b" font-size="10pt" font-family="noto_regular"  y="17"></text></g></g><g id="1n56srb7rm"><mask id="d521c" x="867" y="422" width="201" height="176" maskUnits="userSpaceOnUse"><rect x="867" y="422" width="201" height="176" fill="white" /><rect x="1034.5" y="572.5" width="16" height="25" fill="black" /></mask><g mask="url(#d521c)"><path d="M 1055,435 L 1055,585 L 880,585" fill="none" stroke="#a0a0a0" stroke-width="1.5" stroke-linecap="round" stroke-linejoin="round"/></g><g transform="translate(1037.5, 575.5)" width="10" height="19"><text text-decoration="none" x="0" fill="rgb(75, 75, 75)" font-weight="bold" font-size="9pt" font-family="Arial"  y="17">N</text><text text-decoration="none" x="10" fill="#4b4b4b" font-size="10pt" font-family="noto_regular"  y="17"></text></g></g><g id="2lx406jbmu"><g transform="translate(1065 270)"><ellipse cx="50" cy="25" rx="50" ry="25" fill="rgba(255,255,255,1)" stroke="#f6902a" stroke-width="1.5" stroke-linecap="round" stroke-linejoin="round"/></g><g transform="translate(1087, 285.5) rotate(0, 28, 9.5)" width="56" height="19"><text text-decoration="none" x="3" fill="rgb(75, 75, 75)" font-size="10pt" font-family="Lato"  y="17">ticket_id</text><text text-decoration="none" x="53" fill="#4b4b4b" font-size="10pt" font-family="noto_regular"  y="17"></text></g></g><g id="1l6iywdhbv"><g transform="translate(875 275)"><ellipse cx="50" cy="25" rx="50" ry="25" fill="rgba(255,255,255,1)" stroke="#f6902a" stroke-width="1.5" stroke-linecap="round" stroke-linejoin="round"/></g><g transform="translate(905, 290.5) rotate(0, 20, 9.5)" width="40" height="19"><text text-decoration="none" x="1.5" fill="rgb(75, 75, 75)" font-size="10pt" font-family="Lato"  y="17">status</text><text text-decoration="none" x="38.5" fill="#4b4b4b" font-size="10pt" font-family="noto_regular"  y="17"></text></g></g><g id="pwdihkzojo"><g><path d="M 1085,315 L 1055,385" fill="none" stroke="#a0a0a0" stroke-width="1.5" stroke-linecap="round" stroke-linejoin="round"/></g></g><g id="2b8z92jw8z"><g><path d="M 955,320 L 1005,410" fill="none" stroke="#a0a0a0" stroke-width="1.5" stroke-linecap="round" stroke-linejoin="round"/></g></g><g id="294u0w5rhx"><g transform="translate(1145 690)"><path d="M 130,30 L 65,60 L 0,30 L 65,0 L 130,30 L 130,30 Z" fill="rgba(255,255,255,1)" stroke="#75c19b" stroke-width="1.5" stroke-linecap="round" stroke-linejoin="round"/></g><g transform="translate(1167, 710.5) rotate(0, 43, 9.5)" width="86" height="19"><text text-decoration="none" x="3" fill="rgb(75, 75, 75)" font-size="10pt" font-family="Lato"  y="17">Booked&#160;</text><text text-decoration="none" x="52" fill="rgb(75, 75, 75)" font-size="10pt" font-family="Lato"  y="17">flight</text><text text-decoration="none" x="83" fill="#4b4b4b" font-size="10pt" font-family="noto_regular"  y="17"></text></g></g><g id="kkd99m55oc"><g transform="translate(770 715)"><rect x="0" y="0" width="100" height="50" fill="rgba(255,255,255,1)" stroke="#75c19b" stroke-width="1.5" stroke-linecap="round" stroke-linejoin="round"/></g><g transform="translate(803.5, 730.5) rotate(0, 16.5, 9.5)" width="33" height="19"><text text-decoration="none" x="1" fill="rgb(75, 75, 75)" font-size="10pt" font-family="Lato"  y="17">flight</text><text text-decoration="none" x="32" fill="#4b4b4b" font-size="10pt" font-family="noto_regular"  y="17"></text></g></g><g id="21tq4akfk2"><mask id="0c644" x="857" y="707" width="301" height="46" maskUnits="userSpaceOnUse"><rect x="857" y="707" width="301" height="46" fill="white" /><rect x="1009.5" y="727.5" width="16" height="25" fill="black" /></mask><g mask="url(#0c644)"><path d="M 870,740 L 1020,740 L 1020,730 L 1020,720 L 1145,720" fill="none" stroke="#a0a0a0" stroke-width="1.5" stroke-linecap="round" stroke-linejoin="round"/></g><g transform="translate(1012.5, 730.5)" width="10" height="19"><text text-decoration="none" x="0" fill="rgb(75, 75, 75)" font-weight="bold" font-size="9pt" font-family="Arial"  y="17">N</text><text text-decoration="none" x="10" fill="#4b4b4b" font-size="10pt" font-family="noto_regular"  y="17"></text></g></g><g id="asyqiqgm9p"><mask id="fef98" x="1092" y="397" width="131" height="306" maskUnits="userSpaceOnUse"><rect x="1092" y="397" width="131" height="306" fill="white" /><rect x="1149.5" y="537.5" width="16" height="25" fill="black" /></mask><g mask="url(#fef98)"><path d="M 1210,690 L 1210,550 L 1170,550 L 1130,550 L 1130,480 L 1130,410 L 1105,410" fill="none" stroke="#a0a0a0" stroke-width="1.5" stroke-linecap="round" stroke-linejoin="round"/></g><g transform="translate(1152.5, 540.5)" width="10" height="19"><text text-decoration="none" x="0" fill="rgb(75, 75, 75)" font-weight="bold" font-size="9pt" font-family="Arial"  y="17">N</text><text text-decoration="none" x="10" fill="#4b4b4b" font-size="10pt" font-family="noto_regular"  y="17"></text></g></g><g id="2mxnrbmmdv"><g transform="translate(630 640)"><ellipse cx="50" cy="25" rx="50" ry="25" fill="rgba(255,255,255,1)" stroke="#f6902a" stroke-width="1.5" stroke-linecap="round" stroke-linejoin="round"/></g><g transform="translate(635, 655.5) rotate(0, 45, 9.5)" width="90" height="19"><text text-decoration="none" x="2.5" fill="rgb(75, 75, 75)" font-size="10pt" font-family="Lato"  y="17">flight_number</text><text text-decoration="none" x="87.5" fill="#4b4b4b" font-size="10pt" font-family="noto_regular"  y="17"></text></g></g><g id="28bovc3cfq"><g transform="translate(765 630)"><ellipse cx="50" cy="25" rx="50" ry="25" fill="rgba(255,255,255,1)" stroke="#f6902a" stroke-width="1.5" stroke-linecap="round" stroke-linejoin="round"/></g><g transform="translate(783.5, 645.5) rotate(0, 31.5, 9.5)" width="63" height="19"><text text-decoration="none" x="1.5" fill="rgb(75, 75, 75)" font-size="10pt" font-family="Lato"  y="17">departure</text><text text-decoration="none" x="61.5" fill="#4b4b4b" font-size="10pt" font-family="noto_regular"  y="17"></text></g></g><g id="1pgxu2b34s"><g transform="translate(915 635)"><ellipse cx="50" cy="25" rx="50" ry="25" fill="rgba(255,255,255,1)" stroke="#f6902a" stroke-width="1.5" stroke-linecap="round" stroke-linejoin="round"/></g><g transform="translate(928.5, 650.5) rotate(0, 36.5, 9.5)" width="73" height="19"><text text-decoration="none" x="2.5" fill="rgb(75, 75, 75)" font-size="10pt" font-family="Lato"  y="17">destination</text><text text-decoration="none" x="70.5" fill="#4b4b4b" font-size="10pt" font-family="noto_regular"  y="17"></text></g></g><g id="5z9kzb036d"><g transform="translate(555 695)"><ellipse cx="57.499998807907104" cy="25" rx="57.499998807907104" ry="25" fill="rgba(255,255,255,1)" stroke="#f6902a" stroke-width="1.5" stroke-linecap="round" stroke-linejoin="round"/></g><g transform="translate(562.4999988079071, 710.5) rotate(0, 50, 9.5)" width="100" height="19"><text text-decoration="none" x="3.5" fill="rgb(75, 75, 75)" font-size="10pt" font-family="Lato"  y="17">departure_time</text><text text-decoration="none" x="96.5" fill="#4b4b4b" font-size="10pt" font-family="noto_regular"  y="17"></text></g></g><g id="24uda9rcz0"><g transform="translate(590 775)"><ellipse cx="50" cy="25" rx="50" ry="25" fill="rgba(255,255,255,1)" stroke="#f6902a" stroke-width="1.5" stroke-linecap="round" stroke-linejoin="round"/></g><g transform="translate(600.5, 790.5) rotate(0, 39.5, 9.5)" width="79" height="19"><text text-decoration="none" x="4.5" fill="rgb(75, 75, 75)" font-size="10pt" font-family="Lato"  y="17">arrival_time</text><text text-decoration="none" x="74.5" fill="#4b4b4b" font-size="10pt" font-family="noto_regular"  y="17"></text></g></g><g id="1itqr5mhnw"><g transform="translate(940 780)"><ellipse cx="50" cy="25" rx="50" ry="25" fill="rgba(255,255,255,1)" stroke="#f6902a" stroke-width="1.5" stroke-linecap="round" stroke-linejoin="round"/></g><g transform="translate(974, 795.5) rotate(0, 16, 9.5)" width="32" height="19"><text text-decoration="none" x="1.5" fill="rgb(75, 75, 75)" font-size="10pt" font-family="Lato"  y="17">price</text><text text-decoration="none" x="30.5" fill="#4b4b4b" font-size="10pt" font-family="noto_regular"  y="17"></text></g></g><g id="1ne4srm593"><g><path d="M 940,805 L 870,740" fill="none" stroke="#a0a0a0" stroke-width="1.5" stroke-linecap="round" stroke-linejoin="round"/></g></g><g id="179ll79b2o"><g><path d="M 935,680 L 870,740" fill="none" stroke="#a0a0a0" stroke-width="1.5" stroke-linecap="round" stroke-linejoin="round"/></g></g><g id="f8yp9sq9ag"><g><path d="M 815,680 L 820,715" fill="none" stroke="#a0a0a0" stroke-width="1.5" stroke-linecap="round" stroke-linejoin="round"/></g></g><g id="672f5e1dix"><g><path d="M 730,665 L 820,715" fill="none" stroke="#a0a0a0" stroke-width="1.5" stroke-linecap="round" stroke-linejoin="round"/></g></g><g id="7fzx8a338a"><g><path d="M 670,720 L 770,740" fill="none" stroke="#a0a0a0" stroke-width="1.5" stroke-linecap="round" stroke-linejoin="round"/></g></g><g id="6auzoadsg9"><g><path d="M 690,800 L 770,740" fill="none" stroke="#a0a0a0" stroke-width="1.5" stroke-linecap="round" stroke-linejoin="round"/></g></g><g id="1rnegv5xlc"><g transform="translate(320 790)"><rect x="0" y="0" width="100" height="50" fill="rgba(255,255,255,1)" stroke="#75c19b" stroke-width="1.5" stroke-linecap="round" stroke-linejoin="round"/></g><g transform="translate(326, 805.5) rotate(0, 44, 9.5)" width="88" height="19"><text text-decoration="none" x="3" fill="rgb(75, 75, 75)" font-size="10pt" font-family="Lato"  y="17">administrator</text><text text-decoration="none" x="85" fill="#4b4b4b" font-size="10pt" font-family="noto_regular"  y="17"></text></g></g><g id="2b8za3v433"><g transform="translate(240 675)"><ellipse cx="50" cy="27.500000596046448" rx="50" ry="27.500000596046448" fill="rgba(255,255,255,1)" stroke="#f6902a" stroke-width="1.5" stroke-linecap="round" stroke-linejoin="round"/></g><g transform="translate(257.5, 693.0000005960464) rotate(0, 32.5, 9.5)" width="65" height="19"><text text-decoration="none" x="2.5" fill="rgb(75, 75, 75)" font-size="10pt" font-family="Lato"  y="17">username</text><text text-decoration="none" x="62.5" fill="#4b4b4b" font-size="10pt" font-family="noto_regular"  y="17"></text></g></g><g id="8p3lqrueeg"><g transform="translate(410 675)"><ellipse cx="50" cy="25" rx="50" ry="25" fill="rgba(255,255,255,1)" stroke="#f6902a" stroke-width="1.5" stroke-linecap="round" stroke-linejoin="round"/></g><g transform="translate(429, 690.5) rotate(0, 31, 9.5)" width="62" height="19"><text text-decoration="none" x="2" fill="rgb(75, 75, 75)" font-size="10pt" font-family="Lato"  y="17">password</text><text text-decoration="none" x="60" fill="#4b4b4b" font-size="10pt" font-family="noto_regular"  y="17"></text></g></g><g id="8et3j0dlrj"><g><path d="M 320,725 L 370,790" fill="none" stroke="#a0a0a0" stroke-width="1.5" stroke-linecap="round" stroke-linejoin="round"/></g></g><g id="1stuvvydf3"><g><path d="M 430,720 L 370,790" fill="none" stroke="#a0a0a0" stroke-width="1.5" stroke-linecap="round" stroke-linejoin="round"/></g></g><g id="1ax7xrvx1d"><g transform="translate(570 910)"><path d="M 130,30 L 65,60 L 0,30 L 65,0 L 130,30 L 130,30 Z" fill="rgba(255,255,255,1)" stroke="#75c19b" stroke-width="1.5" stroke-linecap="round" stroke-linejoin="round"/></g><g transform="translate(601.5, 930.5) rotate(0, 33.5, 9.5)" width="67" height="19"><text text-decoration="none" x="2.5" fill="rgb(75, 75, 75)" font-size="10pt" font-family="Lato"  y="17">Scheduled</text><text text-decoration="none" x="64.5" fill="#4b4b4b" font-size="10pt" font-family="noto_regular"  y="17"></text></g></g><g id="8pxx1tc9a2"><mask id="bfb74" x="407" y="802" width="241" height="121" maskUnits="userSpaceOnUse"><rect x="407" y="802" width="241" height="121" fill="white" /><rect x="537" y="832.5" width="16" height="25" fill="black" /></mask><g mask="url(#bfb74)"><path d="M 635,910 L 635,862.45 L 590,862.45 L 545,862.45 L 545,838.725 L 545,815 L 420,815" fill="none" stroke="#a0a0a0" stroke-width="1.5" stroke-linecap="round" stroke-linejoin="round"/></g><g transform="translate(540, 835.5)" width="10" height="19"><text text-decoration="none" x="0" fill="rgb(75, 75, 75)" font-weight="bold" font-size="9pt" font-family="Arial"  y="17">N</text><text text-decoration="none" x="10" fill="#4b4b4b" font-size="10pt" font-family="noto_regular"  y="17"></text></g></g><g id="9tzi166w6x"><mask id="70cd3" x="687" y="752" width="146" height="201" maskUnits="userSpaceOnUse"><rect x="687" y="752" width="146" height="201" fill="white" /><rect x="812" y="900" width="16" height="25" fill="black" /></mask><g mask="url(#70cd3)"><path d="M 700,940 L 820,940 L 820,765" fill="none" stroke="#a0a0a0" stroke-width="1.5" stroke-linecap="round" stroke-linejoin="round"/></g><g transform="translate(815, 903)" width="10" height="19"><text text-decoration="none" x="0" fill="rgb(75, 75, 75)" font-weight="bold" font-size="9pt" font-family="Arial"  y="17">N</text><text text-decoration="none" x="10" fill="#4b4b4b" font-size="10pt" font-family="noto_regular"  y="17"></text></g></g><g id="1il8d2nehf"><g transform="translate(770 1035)"><rect x="0" y="0" width="100" height="50" fill="rgba(255,255,255,1)" stroke="#75c19b" stroke-width="1.5" stroke-linecap="round" stroke-linejoin="round"/></g><g transform="translate(799.5, 1050.5) rotate(0, 20.5, 9.5)" width="41" height="19"><text text-decoration="none" x="2.5" fill="rgb(75, 75, 75)" font-size="10pt" font-family="Lato"  y="17">airline</text><text text-decoration="none" x="38.5" fill="#4b4b4b" font-size="10pt" font-family="noto_regular"  y="17"></text></g></g><g id="27up4otlk4"><g transform="translate(970 935)"><path d="M 130,30 L 65,60 L 0,30 L 65,0 L 130,30 L 130,30 Z" fill="rgba(255,255,255,1)" stroke="#75c19b" stroke-width="1.5" stroke-linecap="round" stroke-linejoin="round"/></g><g transform="translate(996.5, 955.5) rotate(0, 38.5, 9.5)" width="77" height="19"><text text-decoration="none" x="3.5" fill="rgb(75, 75, 75)" font-size="10pt" font-family="Lato"  y="17">Is&#160;</text><text text-decoration="none" x="16.5" fill="rgb(75, 75, 75)" font-size="10pt" font-family="Lato"  y="17">Belong&#160;</text><text text-decoration="none" x="60.5" fill="rgb(75, 75, 75)" font-size="10pt" font-family="Lato"  y="17">to</text><text text-decoration="none" x="73.5" fill="#4b4b4b" font-size="10pt" font-family="noto_regular"  y="17"></text></g></g><g id="60osgbyrdq"><mask id="e95a2" x="837" y="747" width="211" height="201" maskUnits="userSpaceOnUse"><rect x="837" y="747" width="211" height="201" fill="white" /><rect x="932" y="837.5" width="16" height="25" fill="black" /></mask><g mask="url(#e95a2)"><path d="M 1035,935 L 1035,850 L 942.5,850 L 850,850 L 850,760" fill="none" stroke="#a0a0a0" stroke-width="1.5" stroke-linecap="round" stroke-linejoin="round"/></g><g transform="translate(935, 840.5)" width="10" height="19"><text text-decoration="none" x="0" fill="rgb(75, 75, 75)" font-weight="bold" font-size="9pt" font-family="Arial"  y="17">N</text><text text-decoration="none" x="10" fill="#4b4b4b" font-size="10pt" font-family="noto_regular"  y="17"></text></g></g><g id="6yqgtpcroq"><g transform="translate(945 1150)"><ellipse cx="50" cy="25" rx="50" ry="25" fill="rgba(255,255,255,1)" stroke="#f6902a" stroke-width="1.5" stroke-linecap="round" stroke-linejoin="round"/></g><g transform="translate(952.5, 1165.5) rotate(0, 42.5, 9.5)" width="85" height="19"><text text-decoration="none" x="4.5" fill="rgb(75, 75, 75)" font-size="10pt" font-family="Lato"  y="17">airline_name</text><text text-decoration="none" x="80.5" fill="#4b4b4b" font-size="10pt" font-family="noto_regular"  y="17"></text></g></g><g id="s94k1wi62y"><g transform="translate(625 1150)"><ellipse cx="75" cy="25" rx="75" ry="25" fill="rgba(255,255,255,1)" stroke="#f6902a" stroke-width="1.5" stroke-linecap="round" stroke-linejoin="round"/></g><g transform="translate(644, 1165.5) rotate(0, 56, 9.5)" width="112" height="19"><text text-decoration="none" x="5" fill="rgb(75, 75, 75)" font-size="10pt" font-family="Lato"  y="17">airline_logo_path</text><text text-decoration="none" x="107" fill="#4b4b4b" font-size="10pt" font-family="noto_regular"  y="17"></text></g></g><g id="1jl6y7sq37"><g><path d="M 775,1175 L 820,1085" fill="none" stroke="#a0a0a0" stroke-width="1.5" stroke-linecap="round" stroke-linejoin="round"/></g></g><g id="cj0ursj0c2"><g><path d="M 945,1175 L 820,1085" fill="none" stroke="#a0a0a0" stroke-width="1.5" stroke-linecap="round" stroke-linejoin="round"/></g></g><g id="6wu5lxynv7"><mask id="8908f" x="807" y="982" width="241" height="66" maskUnits="userSpaceOnUse"><rect x="807" y="982" width="241" height="66" fill="white" /><rect x="919.5" y="1002.5" width="16" height="25" fill="black" /></mask><g mask="url(#8908f)"><path d="M 820,1035 L 820,1015 L 927.5,1015 L 1035,1015 L 1035,995" fill="none" stroke="#a0a0a0" stroke-width="1.5" stroke-linecap="round" stroke-linejoin="round"/></g><g transform="translate(922.5, 1005.5)" width="10" height="19"><text text-decoration="none" x="0" fill="rgb(75, 75, 75)" font-weight="bold" font-size="9pt" font-family="Arial"  y="17">N</text><text text-decoration="none" x="10" fill="#4b4b4b" font-size="10pt" font-family="noto_regular"  y="17"></text></g></g><g id="4ah6ezb5g3"><g transform="translate(470 1035)"><path d="M 130,30 L 65,60 L 0,30 L 65,0 L 130,30 L 130,30 Z" fill="rgba(255,255,255,1)" stroke="#75c19b" stroke-width="1.5" stroke-linecap="round" stroke-linejoin="round"/></g><g transform="translate(507.5, 1055.5) rotate(0, 27.5, 9.5)" width="55" height="19"><text text-decoration="none" x="0.5" fill="rgb(75, 75, 75)" font-size="10pt" font-family="Lato"  y="17">Modified</text><text text-decoration="none" x="54.5" fill="#4b4b4b" font-size="10pt" font-family="noto_regular"  y="17"></text></g></g><g id="1kdsro1a7c"><mask id="3757e" x="587" y="1047" width="196" height="31" maskUnits="userSpaceOnUse"><rect x="587" y="1047" width="196" height="31" fill="white" /><rect x="677" y="1050" width="16" height="25" fill="black" /></mask><g mask="url(#3757e)"><path d="M 600,1065 L 685,1065 L 685,1062.5 L 685,1060 L 770,1060" fill="none" stroke="#a0a0a0" stroke-width="1.5" stroke-linecap="round" stroke-linejoin="round"/></g><g transform="translate(680, 1053)" width="10" height="19"><text text-decoration="none" x="0" fill="rgb(75, 75, 75)" font-weight="bold" font-size="9pt" font-family="Arial"  y="17">N</text><text text-decoration="none" x="10" fill="#4b4b4b" font-size="10pt" font-family="noto_regular"  y="17"></text></g></g><g id="2pcx5doxme"><mask id="7501c" x="357" y="827" width="126" height="251" maskUnits="userSpaceOnUse"><rect x="357" y="827" width="126" height="251" fill="white" /><rect x="362" y="990" width="16" height="25" fill="black" /></mask><g mask="url(#7501c)"><path d="M 370,840 L 370,1065 L 470,1065" fill="none" stroke="#a0a0a0" stroke-width="1.5" stroke-linecap="round" stroke-linejoin="round"/></g><g transform="translate(365, 993)" width="10" height="19"><text text-decoration="none" x="0" fill="rgb(75, 75, 75)" font-weight="bold" font-size="9pt" font-family="Arial"  y="17">N</text><text text-decoration="none" x="10" fill="#4b4b4b" font-size="10pt" font-family="noto_regular"  y="17"></text></g></g></svg>